<?xml version="1.0" encoding="utf-8"?>
<!-- Generator: Adobe Illustrator 21.0.0, SVG Export Plug-In . SVG Version: 6.00 Build 0)  -->
<svg version="1.1" id="Layer_1" xmlns="http://www.w3.org/2000/svg" xmlns:xlink="http://www.w3.org/1999/xlink" x="0px" y="0px"
	 viewBox="0 0 237.8 62.2" style="enable-background:new 0 0 237.8 62.2;" xml:space="preserve">
<g>
	<g>
		<g>
			<path d="M48.8,55.6c-10.7,7-21.9,6.6-21.9,6.6s-0.3-1.4-0.2-3.9c0.1-2.5,1.5-1.8,2.4-3.7c0.4-0.7,0.7-1.2,1.2-2.8
				c0-0.1-0.6-11.8-0.8-16.8c-0.1-2.7-0.6-7.2-1.2-11.5c-0.3-2.6-1.1-4.6-1.5-7.1c-0.5-3.5-1.1-7.5-1.1-7.5
				c-0.4,1.1-1.1,5.4-1.7,10.1c-0.3,2.3-0.6,4.7-0.9,7c-0.6,4.8-2.1,17.6-2.3,18.3c-0.3,1.1-0.4-0.3-0.4-0.3s0.9-13.4,1.1-19.3
				c0.1-2.9,0.3-6,0.7-9.1c0.3-2.3,0.6-4.5,1.1-6.4c0,0,1.5-4.6,2-4.7c0.5-0.1,2.3,2.9,2.9,5.6c1.4,6.1,2.2,6.8,3.2,13.2
				c1,6,1.9,11.1,2,11.9c0.4,3,0.2,12.4-0.5,16.1c-0.2,1-0.2,1.4-0.9,2.1c-1.6,1.6-2.7,3.5-2.7,4.7c0,1.2-0.2,1.2,0.1,1.9
				c0,0,2.1,3.1,13.9-4c0,0,3.7-1.9,3.7-6.2V6.5c0,0-11.7-4-20.7-4c-9,0-20.3,4-20.3,4v43c0,2.6,0.4,7.4,4.2,9.1
				c0,0-10.1-3.3-10.1-9.2V2.8C0,2.8,15.4,0,26.2,0c10.9,0,26.5,2.8,26.5,2.8v46.6C52.7,53.5,48.8,55.6,48.8,55.6"/>
		</g>
		<g>
			<path d="M81.6,42.2c-2.6,1.4-5.9,2.1-10,2.1c-6.7,0-10.1-2.9-10.1-8.8V17.7h5.9v18.1c0,2.9,1.5,4.4,4.4,4.4
				c1.6,0,2.9-0.3,3.9-0.9V17.7h5.9V42.2z"/>
			<path d="M107.1,43.7h-5.9V25.3c0-2.9-1.6-4.3-4.7-4.3c-1.5,0-2.8,0.2-4.1,0.7v22.1h-5.9V19.1c2.7-1.3,6.1-1.9,10.2-1.9
				c3.6,0,6.3,0.8,8.1,2.4c1.5,1.3,2.3,3.2,2.3,5.5V43.7z"/>
			<path d="M118.6,10.4c0,0.8-0.3,1.5-0.9,2.1c-0.6,0.6-1.4,0.8-2.3,0.8c-0.9,0-1.7-0.3-2.3-0.8c-0.6-0.6-0.9-1.2-0.9-2.1
				c0-0.8,0.3-1.5,0.9-2.1c0.6-0.6,1.4-0.9,2.3-0.9c0.9,0,1.7,0.3,2.3,0.8C118.2,8.8,118.6,9.5,118.6,10.4 M118.2,43.7h-5.9v-26h5.9
				V43.7z"/>
			<path d="M142.3,42.4c-2.3,1.3-5.5,1.9-9.4,1.9c-7.1,0-10.6-2.6-10.6-7.9c0-3.2,1.4-5.5,4.3-7.1c2.2-1.2,5.7-2.1,10.2-2.5v-1.4
				c0-2.9-1.7-4.3-5.2-4.3c-2.2,0-4.3,0.5-6.5,1.6l-1.3-3.4c2.7-1.3,5.7-2,8.9-2c6.4,0,9.6,3,9.6,9V42.4z M136.8,40.2V29.5
				c-3.1,0.4-5.3,1-6.6,1.8c-1.6,1-2.4,2.6-2.4,4.8c0,3.2,1.8,4.8,5.4,4.8C134.7,41,135.8,40.7,136.8,40.2"/>
			<path d="M167.9,43.7H162V25.3c0-2.9-1.6-4.3-4.7-4.3c-1.5,0-2.8,0.2-4.1,0.7v22.1h-5.9V19.1c2.7-1.3,6.1-1.9,10.2-1.9
				c3.6,0,6.3,0.8,8.1,2.4c1.5,1.3,2.3,3.2,2.3,5.5V43.7z"/>
			<path d="M193.2,42.4c-2.2,1.3-5.3,1.9-9.1,1.9c-3.8,0-6.8-1.2-8.9-3.5c-2.1-2.3-3.2-5.5-3.2-9.7c0-4.2,1.1-7.5,3.2-10
				c2.1-2.4,4.8-3.6,8.2-3.6c1.5,0,2.8,0.2,3.9,0.5V7.4h5.9V42.4z M187.3,39.9V21.2c-0.8-0.2-1.6-0.3-2.6-0.3
				c-4.6,0-6.9,3.3-6.9,9.9c0,6.5,2.1,9.7,6.4,9.7C185.7,40.5,186.7,40.3,187.3,39.9"/>
			<path d="M218.8,30.6l-15.9,2.3c0.5,4.8,2.8,7.2,7.1,7.2c2.5,0,4.7-0.5,6.6-1.5l1.4,3.7c-2.2,1.2-5.1,1.8-8.6,1.8
				c-3.7,0-6.7-1.2-8.8-3.5c-2.2-2.3-3.2-5.7-3.2-10c0-4.2,1-7.5,3-9.9c2-2.4,4.7-3.6,8.1-3.6c3.5,0,6.1,1.1,7.9,3.4
				C218.1,22.9,218.9,26.2,218.8,30.6 M213.3,28.3c0-4.9-1.7-7.4-5.1-7.4c-1.8,0-3.2,0.7-4.1,2.2c-1.1,1.6-1.6,3.9-1.5,6.9
				L213.3,28.3z"/>
			<path d="M237.8,36.3c0,2.2-0.9,4-2.6,5.6c-1.7,1.5-3.9,2.3-6.7,2.3c-3,0-5.3-0.6-7.2-1.9l1.5-3.8c1.3,1,2.9,1.5,4.9,1.5
				c1.2,0,2.2-0.3,2.9-1c0.7-0.7,1.1-1.6,1.1-2.6c0-1.1-0.3-2-0.9-2.6c-0.6-0.6-1.6-1.2-2.9-1.7c-4-1.5-5.9-3.9-5.9-7.3
				c0-2.1,0.8-3.9,2.3-5.3c1.5-1.4,3.5-2.2,6-2.2c2.6,0,4.9,0.6,6.8,1.8l-1.4,3.4c-1.2-1-2.6-1.4-4.1-1.4c-1.2,0-2.1,0.3-2.7,1
				c-0.7,0.7-1,1.5-1,2.4c0,1.7,1.3,3.1,3.8,4.1C235.7,30.3,237.8,32.8,237.8,36.3"/>
		</g>
	</g>
</g>
</svg>
